<?xml version="1.0" standalone="no"?>
<!DOCTYPE svg PUBLIC "-//W3C//DTD SVG 20010904//EN"
 "http://www.w3.org/TR/2001/REC-SVG-20010904/DTD/svg10.dtd">
<svg version="1.0" xmlns="http://www.w3.org/2000/svg"
 width="294.000000pt" height="294.000000pt" viewBox="0 0 294.000000 294.000000"
 preserveAspectRatio="xMidYMid meet">
<metadata>
Created by potrace 1.14, written by Peter Selinger 2001-2017
</metadata>
<g transform="translate(0.000000,294.000000) scale(0.100000,-0.100000)"
fill="#000000" stroke="none">
<path d="M1200 2719 c-129 -25 -264 -134 -325 -260 -19 -40 -35 -81 -35 -90 0
-47 -6 -49 -135 -49 -104 0 -124 -3 -137 -17 -23 -28 -28 -51 -17 -77 17 -37
51 -46 169 -46 l109 0 16 -57 c17 -59 61 -140 97 -179 l19 -22 -113 -3 c-98
-4 -118 -7 -151 -28 -51 -32 -76 -58 -98 -106 -17 -37 -19 -72 -19 -450 0
-356 2 -414 16 -433 14 -21 22 -22 140 -22 l124 0 0 -330 0 -331 25 -24 24
-25 391 0 391 0 24 25 25 24 0 331 0 330 124 0 c118 0 126 1 140 22 14 19 16
77 16 433 0 456 0 454 -70 522 -47 46 -107 63 -218 63 l-94 0 38 51 c40 55 83
151 84 187 0 22 2 22 115 22 123 0 157 9 174 46 11 26 6 49 -17 77 -13 14 -33
17 -138 17 l-124 0 -6 28 c-19 93 -85 205 -152 263 -111 95 -269 136 -412 108z
m234 -162 c72 -33 117 -76 157 -149 32 -58 34 -70 34 -153 0 -71 -5 -100 -22
-137 -30 -66 -92 -129 -160 -164 -51 -25 -69 -29 -143 -29 -71 0 -94 4 -140
26 -80 37 -125 81 -162 157 -29 59 -33 76 -33 147 1 99 23 153 95 229 47 50
103 82 175 100 42 10 148 -4 199 -27z m418 -805 l23 -23 0 -357 0 -357 -70 0
-70 0 -5 238 c-5 222 -6 240 -24 253 -29 21 -64 17 -91 -11 l-25 -24 0 -581 0
-580 -110 0 -110 0 0 214 c0 118 -4 226 -10 240 -5 15 -21 32 -35 38 -22 10
-32 9 -60 -7 l-35 -18 -2 -231 -3 -231 -113 -3 -112 -3 2 323 3 323 55 3 c82
3 96 9 110 42 26 64 -16 100 -116 100 l-54 0 0 70 0 70 149 0 c82 0 157 3 166
6 26 11 46 59 35 88 -15 40 -39 46 -199 46 l-151 0 0 47 c0 82 -69 123 -118
70 -21 -22 -22 -33 -24 -252 l-3 -230 -67 -3 -68 -3 0 356 c0 233 4 363 11
376 6 11 20 24 32 29 12 5 255 8 544 7 l522 -2 23 -23z"/>
<path d="M1086 2357 c-33 -33 -33 -61 -1 -92 63 -64 174 17 120 88 -7 10 -31
21 -53 24 -34 5 -45 1 -66 -20z"/>
<path d="M1399 2362 c-48 -39 -16 -122 48 -122 27 0 64 17 75 34 14 21 8 66
-12 86 -25 25 -80 26 -111 2z"/>
</g>
</svg>
